PathFileType	4	(X/Y/Z)	subject01_static.trc
DataRate	CameraRate	NumFrames	NumMarkers	Units	OrigDataRate	OrigDataStartFrame	OrigNumFrames
60.00	60.00	       4	49	mm	60.00	1	       300
Frame#	Time	R.ASIS			L.ASIS			V.Sacral			R.Thigh.Upper			R.Thigh.Front			R.Thigh.Rear			L.Thigh.Upper			L.Thigh.Front			L.Thigh.Rear			R.Knee.Lat			R.Knee.Med			L.Knee.Lat			L.Knee.Med			R.Shank.Upper			R.Shank.Front			R.Shank.Rear			L.Shank.Upper			L.Shank.Front			L.Shank.Rear			R.Ankle.Lat			R.Ankle.Med			L.Ankle.Lat			L.Ankle.Med			R.Heel			R.Midfoot.Sup			R.Midfoot.Lat			R.Toe.Tip			L.Heel			L.Midfoot.Sup			L.Midfoot.Lat			L.Toe.Tip			Sternum			R.Acromium			L.Acromium			R.Bicep			L.Bicep			R.Elbow			L.Elbow			R.Wrist.Med			R.Wrist.Lat			L.Wrist.Med			L.Wrist.Lat			R.Toe.Lat			R.Toe.Med			L.Toe.Lat			L.Toe.Med			R.Temple			L.Temple			Top.Head			
		X1	Y1	Z1	X2	Y2	Z2	X3	Y3	Z3	X4	Y4	Z4	X5	Y5	Z5	X6	Y6	Z6	X7	Y7	Z7	X8	Y8	Z8	X9	Y9	Z9	X10	Y10	Z10	X11	Y11	Z11	X12	Y12	Z12	X13	Y13	Z13	X14	Y14	Z14	X15	Y15	Z15	X16	Y16	Z16	X17	Y17	Z17	X18	Y18	Z18	X19	Y19	Z19	X20	Y20	Z20	X21	Y21	Z21	X22	Y22	Z22	X23	Y23	Z23	X24	Y24	Z24	X25	Y25	Z25	X26	Y26	Z26	X27	Y27	Z27	X28	Y28	Z28	X29	Y29	Z29	X30	Y30	Z30	X31	Y31	Z31	X32	Y32	Z32	X33	Y33	Z33	X34	Y34	Z34	X35	Y35	Z35	X36	Y36	Z36	X37	Y37	Z37	X38	Y38	Z38	X39	Y39	Z39	X40	Y40	Z40	X41	Y41	Z41	X42	Y42	Z42	X43	Y43	Z43	X44	Y44	Z44	X45	Y45	Z45	X46	Y46	Z46	X47	Y47	Z47	X48	Y48	Z48	X49	Y49	Z49	

1	0.000000	608.664310	1072.713130	157.442150	610.637270	1060.495000	-103.888650	411.416170	1079.594120	35.938600	544.204960	756.665040	224.033950	594.615660	681.149540	134.620710	523.435970	636.808530	226.152360	519.331180	767.923340	-168.781510	606.596370	718.091430	-111.824120	506.826110	658.231990	-160.364240	477.811160	553.746700	216.375120	470.077030	525.795230	97.880180	478.466770	528.674560	-150.387880	499.956300	519.403140	-36.690100	442.731140	469.209050	236.210100	514.687680	424.146450	184.598160	453.980160	383.783910	253.054860	468.815220	450.184690	-170.554470	517.972660	393.308260	-128.095630	446.394170	409.518520	-181.487780	437.704470	98.115020	255.683150	444.270570	103.766630	165.133670	442.973880	93.640570	-172.212040	465.029450	109.253060	-81.647740	366.581480	70.651880	210.265470	507.368290	79.931870	164.823090	509.392670	63.613420	272.876920	657.167910	50.652440	195.336530	372.470520	75.413370	-114.765080	544.812990	77.038730	-94.775080	523.926880	66.102290	-191.767330	654.724120	48.575230	-127.248150	607.435000	1423.897340	24.486960	491.302830	1549.965580	194.138080	489.843110	1560.595460	-147.294250	525.285160	1504.258670	358.660400	533.769900	1506.658450	-324.694000	519.261230	1471.409670	462.660640	498.831790	1474.214110	-425.565120	671.209350	1467.399660	687.415950	610.803340	1475.488400	711.568420	624.059020	1441.513550	-644.900330	551.747250	1446.319580	-662.181700	600.127750	39.554170	276.710600	594.261660	49.267220	168.035320	585.345090	39.916630	-201.712390	605.791380	51.731220	-101.035780	604.606810	1656.773930	131.052700	671.874390	1644.925170	9.873910	593.032100	1814.390140	32.174850	
2	0.017000	608.614440	1072.714110	157.562670	610.729190	1060.485230	-103.827290	411.412080	1079.595830	35.937720	544.470760	756.616090	224.045150	594.653440	681.263610	134.691640	523.491330	636.859800	226.200560	519.351260	768.052920	-168.817580	606.742800	718.173710	-111.809170	506.984800	658.292300	-160.383850	477.914920	553.738280	216.363890	470.295010	525.797360	97.824960	478.472840	528.708250	-150.406540	499.956300	519.403140	-36.690100	442.789310	469.209080	236.195300	514.690370	424.045650	184.559620	454.148830	383.844880	253.032960	468.881740	450.168150	-170.589830	517.945800	393.294340	-127.990160	446.579160	409.706020	-181.427290	437.679260	98.110490	255.630330	444.162290	103.690200	165.112110	443.038420	93.681530	-172.189650	465.019290	109.208370	-81.670640	366.635770	70.634250	210.276020	507.529790	80.161510	164.899630	509.378660	63.692890	272.871860	657.167660	50.652390	195.336290	371.892940	75.454630	-115.399580	544.812990	77.038730	-94.775080	523.835270	66.117900	-191.777880	654.436890	48.343820	-127.543140	607.394840	1423.976560	24.509160	491.243260	1549.991460	193.985410	489.800990	1560.558590	-147.437910	525.375000	1504.305420	358.516480	533.398500	1506.742190	-324.837740	519.383120	1471.423220	462.308650	498.309690	1474.517580	-425.827910	670.903200	1467.405880	687.602170	611.004030	1475.894900	711.671690	624.139650	1441.430660	-644.899600	551.942690	1446.172240	-662.120850	600.126590	39.556600	276.713870	594.256040	49.319660	168.043330	585.345090	39.916630	-201.712390	605.848880	51.609020	-100.991170	604.659910	1656.772580	130.964950	671.808720	1644.885130	9.683670	593.024290	1814.353270	32.046080	
3	0.033000	608.585330	1072.709350	157.650510	610.801210	1060.485230	-103.781220	411.413420	1079.595090	35.938080	544.703610	756.573300	224.054930	594.684810	681.343870	134.774800	523.536740	636.900700	226.240080	519.327510	768.107060	-168.807920	606.855710	718.221620	-111.794560	507.108150	658.340450	-160.396970	478.003390	553.722230	216.351670	470.461980	525.796690	97.791790	478.492710	528.724240	-150.408070	499.956300	519.403140	-36.690100	442.825990	469.200620	236.185060	514.690430	423.977260	184.537230	454.294280	383.896480	253.016890	468.936680	450.156250	-170.618260	517.942380	393.288790	-127.952110	446.697300	409.831820	-181.384050	437.657230	98.106530	255.580730	444.069060	103.633280	165.099380	443.078770	93.707150	-172.175640	465.008940	109.162970	-81.693910	366.695740	70.614790	210.287660	507.652310	80.306510	164.950380	509.373660	63.738330	272.876280	657.167360	50.652340	195.335980	371.531190	75.479210	-115.796530	544.812990	77.038730	-94.775080	523.557860	66.063710	-191.842300	654.250060	48.194920	-127.733460	607.367800	1424.034910	24.523630	491.190430	1550.015380	193.843690	489.780400	1560.535030	-147.537230	525.466980	1504.362300	358.376040	533.179570	1506.799190	-324.999270	519.508540	1471.493530	462.078580	497.981080	1474.675780	-425.992710	670.788940	1467.506230	687.682620	611.237550	1476.241700	711.738040	624.222780	1441.353270	-644.903870	552.119870	1446.008910	-662.067380	600.124570	39.562280	276.721710	594.249270	49.345420	168.053250	585.345090	39.916630	-201.712390	605.902830	51.501950	-100.955770	604.727360	1656.774170	130.889130	671.764590	1644.817990	9.486160	593.018490	1814.319460	31.922810	
4	0.050000	608.578310	1072.702270	157.691040	610.849300	1060.499510	-103.755070	411.426300	1079.589360	35.941060	544.859310	756.544860	224.061420	594.720150	681.383730	134.847520	523.566040	636.923650	226.265550	519.243410	768.069950	-168.753980	606.915340	718.224240	-111.782150	507.191310	658.371830	-160.398850	478.064270	553.697690	216.342040	470.551330	525.794010	97.781880	478.530360	528.730830	-150.389210	499.956300	519.403140	-36.690100	442.830930	469.187840	236.182460	514.686830	423.957000	184.536800	454.389830	383.932340	253.011230	468.977600	450.151180	-170.637440	517.979430	393.297760	-127.987120	446.732910	409.876950	-181.360150	437.633090	98.102200	255.519680	443.997890	103.608740	165.096330	443.110630	93.727360	-172.164600	465.000340	109.125240	-81.713250	366.748720	70.597590	210.297940	507.701320	80.351330	164.967380	509.369020	63.756370	272.884740	657.167050	50.652290	195.335740	371.416500	75.499740	-115.889210	544.812990	77.038730	-94.775080	523.176820	65.975510	-191.935150	654.199710	48.167010	-127.778860	607.348630	1424.079710	24.532350	491.148100	1550.036620	193.720900	489.790740	1560.535640	-147.572880	525.554630	1504.451290	358.243840	533.130980	1506.823490	-325.143650	519.621340	1471.680050	462.062320	497.870880	1474.695070	-426.038020	671.003720	1467.777710	687.610050	611.510130	1476.508910	711.746280	624.325440	1441.303590	-644.909180	552.273930	1445.843260	-662.041320	600.121520	39.572620	276.736180	594.240170	49.344350	168.067020	585.345090	39.916630	-201.712390	605.944820	51.441130	-100.937070	604.804200	1656.785640	130.829900	671.737180	1644.727660	9.271410	593.013240	1814.292970	31.807830	
